<svg width="635" height="207" viewBox="0 0 635 207" fill="none" xmlns="http://www.w3.org/2000/svg">
<g opacity="0.5">
<path d="M337.46 11.4984L337.439 11.4967L337.418 11.4932L285.119 2.77669C276.253 1.29901 267.15 2.31421 258.828 5.70895L252.277 8.38083C240.392 13.2286 226.945 12.3864 215.758 6.09361C206.56 0.919952 195.724 -0.515335 185.497 2.08537L140.946 13.4141C134.226 15.1229 127.195 15.2033 120.438 13.6485L91.7157 7.03993C82.5701 4.93565 73.6053 11.1822 72.412 20.4905C71.0049 31.466 59.5919 38.1391 49.337 33.9824L45.3317 32.3588C26.8363 24.8618 10.5958 47.0529 23.3351 62.415L29.6383 70.0159C36.6041 78.4158 36.604 90.5843 29.6383 98.9842L4.08599 129.797C-3.92403 139.456 6.07738 153.471 17.8161 149.037C26.4668 145.77 35.7144 152.162 35.7144 161.409V169.23C35.7144 186.445 57.8566 193.455 67.764 179.376L73.8792 170.686C79.0812 163.294 88.2765 159.837 97.0602 161.971L119.139 167.336C130.364 170.064 140.281 176.631 147.173 185.9L147.508 186.35C158.489 201.117 176.882 208.398 194.995 205.147L235.077 197.953C242.138 196.685 248.831 193.867 254.671 189.701L286.916 166.703C303.286 155.027 325.092 154.414 342.092 165.151L346.683 168.05C350.426 170.415 353.717 173.429 356.401 176.951L357.186 177.982C367.954 192.114 387.65 195.842 402.837 186.621C412.362 180.838 424.041 179.83 434.416 183.895L443.175 187.327C456.644 192.605 471.934 189.908 482.785 180.34C489.279 174.614 497.471 171.174 506.107 170.547L563.205 166.399C566.837 166.135 570.418 167.368 573.117 169.812C583.759 179.447 599.49 166.201 591.808 154.074L590.158 151.469C584.922 143.205 589.749 132.272 599.383 130.572L622.397 126.51C635.614 123.282 638.348 105.689 626.727 98.604L617.278 92.8429C607.805 87.0669 609.313 72.8748 619.788 69.2182C632.978 64.6142 629.23 45.0352 615.273 45.6277L611.196 45.8008C602.644 46.1638 596.149 38.1993 598.225 29.8956C601.071 18.5125 587.373 10.3947 578.754 18.3564L571.198 25.3367C564.935 31.1217 555.222 30.9293 549.194 24.9008L537.985 13.6924C529.374 5.08073 516.556 2.23128 505.107 6.38315L497.116 9.28087C485.219 13.5954 472.065 12.7866 460.786 7.04686L459.099 6.18845C445.899 -0.528519 430.354 -0.846024 416.89 5.32635L405.321 10.6307C397.629 14.1572 389.161 15.6529 380.726 14.9752L337.46 11.4984Z" fill="url(#paint0_linear_1063_365)" fill-opacity="0.15"/>
<path d="M337.46 11.4984L337.439 11.4967L337.418 11.4932L285.119 2.77669C276.253 1.29901 267.15 2.31421 258.828 5.70895L252.277 8.38083C240.392 13.2286 226.945 12.3864 215.758 6.09361C206.56 0.919952 195.724 -0.515335 185.497 2.08537L140.946 13.4141C134.226 15.1229 127.195 15.2033 120.438 13.6485L91.7157 7.03993C82.5701 4.93565 73.6053 11.1822 72.412 20.4905C71.0049 31.466 59.5919 38.1391 49.337 33.9824L45.3317 32.3588C26.8363 24.8618 10.5958 47.0529 23.3351 62.415L29.6383 70.0159C36.6041 78.4158 36.604 90.5843 29.6383 98.9842L4.08599 129.797C-3.92403 139.456 6.07738 153.471 17.8161 149.037C26.4668 145.77 35.7144 152.162 35.7144 161.409V169.23C35.7144 186.445 57.8566 193.455 67.764 179.376L73.8792 170.686C79.0812 163.294 88.2765 159.837 97.0602 161.971L119.139 167.336C130.364 170.064 140.281 176.631 147.173 185.9L147.508 186.35C158.489 201.117 176.882 208.398 194.995 205.147L235.077 197.953C242.138 196.685 248.831 193.867 254.671 189.701L286.916 166.703C303.286 155.027 325.092 154.414 342.092 165.151L346.683 168.05C350.426 170.415 353.717 173.429 356.401 176.951L357.186 177.982C367.954 192.114 387.65 195.842 402.837 186.621C412.362 180.838 424.041 179.83 434.416 183.895L443.175 187.327C456.644 192.605 471.934 189.908 482.785 180.34C489.279 174.614 497.471 171.174 506.107 170.547L563.205 166.399C566.837 166.135 570.418 167.368 573.117 169.812C583.759 179.447 599.49 166.201 591.808 154.074L590.158 151.469C584.922 143.205 589.749 132.272 599.383 130.572L622.397 126.51C635.614 123.282 638.348 105.689 626.727 98.604L617.278 92.8429C607.805 87.0669 609.313 72.8748 619.788 69.2182C632.978 64.6142 629.23 45.0352 615.273 45.6277L611.196 45.8008C602.644 46.1638 596.149 38.1993 598.225 29.8956C601.071 18.5125 587.373 10.3947 578.754 18.3564L571.198 25.3367C564.935 31.1217 555.222 30.9293 549.194 24.9008L537.985 13.6924C529.374 5.08073 516.556 2.23128 505.107 6.38315L497.116 9.28087C485.219 13.5954 472.065 12.7866 460.786 7.04686L459.099 6.18845C445.899 -0.528519 430.354 -0.846024 416.89 5.32635L405.321 10.6307C397.629 14.1572 389.161 15.6529 380.726 14.9752L337.46 11.4984Z" fill="url(#paint1_radial_1063_365)" fill-opacity="0.2"/>
<path d="M337.46 11.4984L337.439 11.4967L337.418 11.4932L285.119 2.77669C276.253 1.29901 267.15 2.31421 258.828 5.70895L252.277 8.38083C240.392 13.2286 226.945 12.3864 215.758 6.09361C206.56 0.919952 195.724 -0.515335 185.497 2.08537L140.946 13.4141C134.226 15.1229 127.195 15.2033 120.438 13.6485L91.7157 7.03993C82.5701 4.93565 73.6053 11.1822 72.412 20.4905C71.0049 31.466 59.5919 38.1391 49.337 33.9824L45.3317 32.3588C26.8363 24.8618 10.5958 47.0529 23.3351 62.415L29.6383 70.0159C36.6041 78.4158 36.604 90.5843 29.6383 98.9842L4.08599 129.797C-3.92403 139.456 6.07738 153.471 17.8161 149.037C26.4668 145.77 35.7144 152.162 35.7144 161.409V169.23C35.7144 186.445 57.8566 193.455 67.764 179.376L73.8792 170.686C79.0812 163.294 88.2765 159.837 97.0602 161.971L119.139 167.336C130.364 170.064 140.281 176.631 147.173 185.9L147.508 186.35C158.489 201.117 176.882 208.398 194.995 205.147L235.077 197.953C242.138 196.685 248.831 193.867 254.671 189.701L286.916 166.703C303.286 155.027 325.092 154.414 342.092 165.151L346.683 168.05C350.426 170.415 353.717 173.429 356.401 176.951L357.186 177.982C367.954 192.114 387.65 195.842 402.837 186.621C412.362 180.838 424.041 179.83 434.416 183.895L443.175 187.327C456.644 192.605 471.934 189.908 482.785 180.34C489.279 174.614 497.471 171.174 506.107 170.547L563.205 166.399C566.837 166.135 570.418 167.368 573.117 169.812C583.759 179.447 599.49 166.201 591.808 154.074L590.158 151.469C584.922 143.205 589.749 132.272 599.383 130.572L622.397 126.51C635.614 123.282 638.348 105.689 626.727 98.604L617.278 92.8429C607.805 87.0669 609.313 72.8748 619.788 69.2182C632.978 64.6142 629.23 45.0352 615.273 45.6277L611.196 45.8008C602.644 46.1638 596.149 38.1993 598.225 29.8956C601.071 18.5125 587.373 10.3947 578.754 18.3564L571.198 25.3367C564.935 31.1217 555.222 30.9293 549.194 24.9008L537.985 13.6924C529.374 5.08073 516.556 2.23128 505.107 6.38315L497.116 9.28087C485.219 13.5954 472.065 12.7866 460.786 7.04686L459.099 6.18845C445.899 -0.528519 430.354 -0.846024 416.89 5.32635L405.321 10.6307C397.629 14.1572 389.161 15.6529 380.726 14.9752L337.46 11.4984Z" stroke="#756206"/>
</g>
<defs>
<linearGradient id="paint0_linear_1063_365" x1="-162.151" y1="84.5" x2="803.214" y2="84.5" gradientUnits="userSpaceOnUse">
<stop stop-color="#48351A"/>
<stop offset="0.502321" stop-color="#8A7225"/>
<stop offset="1" stop-color="#F0C641" stop-opacity="0"/>
</linearGradient>
<radialGradient id="paint1_radial_1063_365" cx="0" cy="0" r="1" gradientUnits="userSpaceOnUse" gradientTransform="translate(310 -25.977) rotate(-90) scale(146.159 466.074)">
<stop stop-color="#FED501"/>
<stop offset="1" stop-color="#987F01" stop-opacity="0"/>
</radialGradient>
</defs>
</svg>
