<svg width="219" height="21" viewBox="0 0 219 21" fill="none" xmlns="http://www.w3.org/2000/svg">
<path d="M0.0976562 0.316406H4.6582H8.75977C10.3613 0.316406 11.8685 0.335938 13.2812 0.375C14.694 0.414062 15.9147 0.791667 16.9434 1.50781C18.8184 2.81641 19.7559 4.43424 19.7559 6.36133C19.7559 6.86914 19.6777 7.36719 19.5215 7.85547C20.2637 8.59766 20.8431 9.42122 21.2598 10.3262C21.6829 11.2246 21.8945 12.1719 21.8945 13.168C21.8945 14.3789 21.5983 15.5182 21.0059 16.5859C20.4134 17.6471 19.5931 18.5684 18.5449 19.3496C17.3145 20.2611 15.8529 20.7428 14.1602 20.7949C12.474 20.847 10.6738 20.873 8.75977 20.873H4.6582H0.0976562V17.3965V16.4492V9.67188V3.05078V0.316406ZM12.4805 11.9375C12.4805 11.4167 12.2363 10.974 11.748 10.6094C11.2663 10.2383 10.6836 10.0527 10 10.0527H8.75977C8.75977 11.1204 8.75977 12.1882 8.75977 13.2559C8.75977 14.3236 8.75977 15.388 8.75977 16.4492H10C10.6836 16.4492 11.2663 16.2669 11.748 15.9023C12.2363 15.5312 12.4805 15.0853 12.4805 14.5645V11.9375ZM11.875 7.32812V5.26758C11.875 4.85742 11.6699 4.50911 11.2598 4.22266C10.8496 3.92969 10.3613 3.7832 9.79492 3.7832H8.75977C8.75977 4.62305 8.75977 5.46289 8.75977 6.30273C8.75977 7.13607 8.75977 7.97266 8.75977 8.8125H9.79492C10.3613 8.8125 10.8496 8.66927 11.2598 8.38281C11.6699 8.08984 11.875 7.73828 11.875 7.32812ZM32.552 0.365234V14.7891H40.5402V20.8926H32.552H23.8898V0.365234H32.552ZM53.2387 9.39844L52.1937 12.4258H54.0297L53.2387 9.39844ZM55.4555 17.9141H50.3187L49.3031 20.8926H40.6312L47.6625 0.365234H59.5473L64.8988 20.8926H56.2367L55.4555 17.9141ZM73.0074 0.365234H84.0816V6.46875H75.0973C74.6155 6.46875 74.3811 6.68685 74.3941 7.12305C74.3941 7.61133 74.5699 7.91081 74.9215 8.02148H79.9117C81.8323 8.02148 83.1246 8.49023 83.7887 9.42773C84.4592 10.3652 84.7945 11.6413 84.7945 13.2559C84.7945 14.3691 84.7815 15.4303 84.7555 16.4395C84.7294 17.4421 84.3323 18.3926 83.5641 19.291C82.8219 20.1634 81.9365 20.6484 80.9078 20.7461C79.8792 20.8438 78.704 20.8926 77.3824 20.8926H66.3082V14.7891H75.2828C75.4781 14.7891 75.6734 14.7174 75.8688 14.5742C76.0706 14.431 76.1715 14.2161 76.1715 13.9297C76.165 13.6497 76.0641 13.4414 75.8688 13.3047C75.6734 13.168 75.4781 13.0996 75.2828 13.0996C74.7034 13.0996 74.1272 13.0931 73.5543 13.0801C72.9814 13.0671 72.4085 13.0508 71.8355 13.0312C70.5009 12.9857 69.3193 12.8229 68.2906 12.543C67.262 12.2565 66.4579 11.498 65.8785 10.2676C65.4423 9.28451 65.2763 7.93359 65.3805 6.21484C65.4911 4.48958 65.8883 3.1875 66.5719 2.30859C67.5224 1.09115 68.4827 0.482422 69.4527 0.482422C70.4293 0.475911 71.6142 0.436849 73.0074 0.365234ZM101.438 6.46875V20.8926H92.6297V6.46875H86.7898V0.365234H92.6297H101.438H107.298V6.46875H101.438ZM109.293 0.365234H127.77V6.46875H118.092V8.23633H126.139V13.3926H118.092V14.7891H127.77V20.8926H109.293V0.365234ZM129.765 0.394531H134.325H138.437C140.351 0.394531 142.151 0.427083 143.837 0.492188C145.523 0.557292 146.982 1.18555 148.212 2.37695C149.267 3.39909 150.087 4.61003 150.673 6.00977C151.265 7.40299 151.562 8.88086 151.562 10.4434C151.562 11.8496 151.318 13.1875 150.829 14.457C150.341 15.7201 149.67 16.8496 148.818 17.8457C147.333 19.5775 145.738 20.5182 144.032 20.668C142.333 20.8177 140.468 20.8926 138.437 20.8926H129.765V15.9512V4.93555V0.394531ZM142.157 12.0547V8.62695C142.157 7.94987 141.913 7.37044 141.425 6.88867C140.937 6.4069 140.351 6.16602 139.667 6.16602H138.437C138.437 7.55924 138.437 8.95247 138.437 10.3457C138.437 11.7389 138.437 13.1289 138.437 14.5156H139.667C140.351 14.5156 140.937 14.278 141.425 13.8027C141.913 13.321 142.157 12.7383 142.157 12.0547Z" fill="#FED601"/>
<path d="M164.25 9.39844L163.205 12.4258H165.041L164.25 9.39844ZM166.467 17.9141H161.33L160.315 20.8926H151.643L158.674 0.365234H170.559L175.911 20.8926H167.248L166.467 17.9141ZM176.236 0.335938H180.796H184.898C186.812 0.335938 188.612 0.361979 190.298 0.414062C191.991 0.466146 193.453 0.947917 194.683 1.85938C195.731 2.64062 196.552 3.56836 197.144 4.64258C197.737 5.71029 198.033 6.8431 198.033 8.04102C198.033 9.12174 197.789 10.1471 197.3 11.1172C196.812 12.0872 196.142 12.9531 195.289 13.7148C193.713 15.1211 192.144 15.86 190.582 15.9316C189.019 16.0033 187.125 16.0391 184.898 16.0391V20.8926H176.236V12.2598V3.82227V0.335938ZM188.629 9.27148V6.64453C188.629 6.13021 188.384 5.6875 187.896 5.31641C187.408 4.94531 186.822 4.75977 186.138 4.75977H184.898C184.898 5.83398 184.898 6.90495 184.898 7.97266C184.898 9.03385 184.898 10.0951 184.898 11.1562H186.138C186.822 11.1562 187.408 10.974 187.896 10.6094C188.384 10.2448 188.629 9.79883 188.629 9.27148ZM200.028 0.365234H218.505V6.46875H208.827V8.23633H216.874V13.3926H208.827V14.7891H218.505V20.8926H200.028V0.365234Z" fill="white"/>
</svg>
